<svg xmlns="http://www.w3.org/2000/svg" width="676.25" height="676.25"><defs><filter id="a" width="1.08" height="1.1" x="-.04" y="-.05"><feGaussianBlur stdDeviation="9.73"/></filter></defs><path fill="none" d="M0 0h676.25v676.25H0z"/><path fill="#0a4000" fill-rule="evenodd" d="M542.97 308.25c-49.15.61-158.12 38.38-210.06 68.8-95.94 56.2-101.72 126.48-104.56 200.02-18.33 21.03-30.43 18.02-43.72 19.62 4.2-41.5 10.79-80.27 0-138.9l-80.76-16.41c56.66 214.69-28.2 194.05-34.6 284.78l115.36 31.19c-50.07-59.05-20.27-48.08 0-138.44 4.99-8.82 28.36-2.35 70.2-6.83 64.84 38.55 121.1 61.26 221.16 3.17 102.66-59.6 196.25-173.8 190.6-278.3l.44-.26-.46-.31c-.02-.19 4.83-14.92 4.81-15.1l3.44-22.04c-8.52-15.93 25.65 19.3-80.14 6.23-6.77-.84-44.69 2.7-51.7 2.78zm73 32.6c.21-.05.38-.03.44.06 1.96 3.04-103.18 103.34-200.4 169.31-97.24 65.98-149.76 72.63-151.73 69.6-1.96-3.04 75.62-36.56 172.85-102.53 94.19-63.92 172.27-134.83 178.84-136.44z" filter="url(#a)" transform="translate(-33.92 -188.06)"/><path fill="#81b300" fill-rule="evenodd" d="M509.05 120.2c-49.15.6-158.13 38.37-210.06 68.79-95.95 56.2-101.72 126.48-104.57 200.02-18.32 21.03-30.42 18.02-43.72 19.62 4.2-41.5 10.8-80.27 0-138.9l-80.75-16.41C126.6 468 41.74 447.37 35.35 538.1l115.35 31.2c-50.06-59.06-20.26-48.09 0-138.45 5-8.81 28.37-2.35 70.2-6.83 64.84 38.55 121.1 61.27 221.16 3.17 102.67-59.6 196.25-173.8 190.61-278.3l.44-.26-.47-.3c-.01-.2 4.83-14.92 4.82-15.1l3.44-22.05c-8.52-15.93 25.64 19.3-80.15 6.23-6.77-.83-44.68 2.7-51.7 2.79zm73 32.6c.21-.06.37-.04.44.05 1.96 3.04-103.18 103.34-200.41 169.32-97.23 65.97-149.76 72.63-151.72 69.59-1.96-3.04 75.62-36.56 172.84-102.53 94.2-63.91 172.28-134.83 178.85-136.44z"/></svg>